<?xml version="1.0" encoding="UTF-8"?>
<!-- Created with Inkscape (http://www.inkscape.org/) -->
<svg width="687.79" height="125.76" version="1.1" viewBox="0 0 181.98 33.273" xmlns="http://www.w3.org/2000/svg" xmlns:cc="http://creativecommons.org/ns#" xmlns:dc="http://purl.org/dc/elements/1.1/" xmlns:rdf="http://www.w3.org/1999/02/22-rdf-syntax-ns#">
  <metadata>
    <rdf:RDF>
      <cc:Work rdf:about="">
        <dc:format>image/svg+xml</dc:format>
        <dc:type rdf:resource="http://purl.org/dc/dcmitype/StillImage"/>
        <dc:title/>
      </cc:Work>
    </rdf:RDF>
  </metadata>
  <g transform="translate(-4.8817 -184.85)">
    <g fill="#005b00" stroke-width=".26458px" style="font-feature-settings:normal;font-variant-caps:normal;font-variant-ligatures:normal;font-variant-numeric:normal" aria-label="Game Over">
      <path d="m28.036 187.2q0 1.0611-0.9474 1.7432t-2.2359 0.68213q-1.4022 0-2.9559-0.5116-3.3917-1.1179-4.6612-1.1179-4.2065 0-6.9729 3.5812-2.6148 3.3728-2.6148 8.015 0 5.6086 3.2591 9.6445 3.3727 4.1686 8.2992 4.1686 0.5116 0 1.2695-0.0758 0.77687-0.0758 1.8759-0.39791 1.099-0.32212 1.5916-0.72003-0.32212-0.30316-0.54949-0.64423-0.15158-0.24632-0.39791-0.72002-0.22738-0.49265-0.28422-1.2127-0.05684-0.72002-0.05684-1.8569v-8.4887q-0.75792 0.34107-1.3264 0.4737-0.56844 0.13264-1.3643 0.13264-0.75792 0-2.0464-0.77687t-2.0464-0.77687q-0.58739 0-1.08 0.28422-0.4737 0.26527-0.4737 0.81477 0 1.1748 1.0232 1.0611 0.32212-0.0568 0.49265-0.13263 0.18948-0.0947 0.26527-0.20843 0.05684-0.0947 0.13264-0.0947 0.09474 0 0.09474 0.13264 0.09474 0.24632 0.09474 0.54949 0 0.15158-0.0379 0.39791-0.0379 0.22737-0.45475 0.56844-0.41686 0.34106-0.92845 0.34106-0.83371 0-1.2885-0.64423-0.4358-0.64423-0.4358-1.4969 0-0.18948 0.01895-0.28422 0.13264-1.2885 1.1179-2.0843 0.9853-0.79581 2.3685-0.79581 1.2885 0 2.5011 0.45475 2.6338 0.9853 4.1307 0.9853 0.70108 0 1.4779-0.24633 0.83371-0.30317 1.6674-0.62528 0.26527 0 0.15158 0.22737-0.28422 0.34107-0.56844 0.66318-0.83371 1.08-0.83371 2.2548v8.034q0 1.5158 0.60634 2.5769 0.20843 0.36002 0.9095 1.1369 0.09474 0.11369 0.09474 0.20843 0 0.0947-0.13264 0.20843-0.77687 0.58739-3.1643 1.2316-2.8422 0.77687-5.1728 0.77687-5.7223 0-9.6824-4.3012-3.8843-4.2254-3.8843-10.099 0-5.5897 3.3727-9.3793 3.5243-3.9601 9.0572-3.9601 1.8569 0 4.1307 0.73897 2.2738 0.73898 2.7285 0.73898 1.6295 0 1.6295-1.1748 0-0.49265-0.30317-0.73897-0.28422-0.24633-0.68213-0.24633-0.15158-0.0379-0.30317 0.0189-0.15158 0.0379-0.22738 0.0568-0.11369 0.0568-0.18948 0.0379-0.07579-0.0189-0.07579-0.11369 0-0.11369 0.07579-0.26527 0.24632-0.54949 0.75792-0.81476 0.5116-0.28422 1.099-0.28422 1.0232 0 1.5537 0.68212 0.53054 0.66318 0.53054 1.6674z" style="font-feature-settings:normal;font-variant-caps:normal;font-variant-ligatures:normal;font-variant-numeric:normal"/>
      <path d="m48.348 213.54q0.13264 0.20842 0.13264 0.30316 0 0.18949-0.28422 0.18949-0.07579 0-0.62528-0.0568-0.54949-0.0568-1.0421-0.0568-0.34106 0-0.75792 0.0568-0.41686 0.0568-0.49265 0.0568-0.4358 0-0.4358-0.20843 0-0.0758 0.09474-0.20843 0.17053-0.24633 0.26527-0.5116 0.11369-0.28422 0.11369-0.62528l-0.11369-1.819q-0.73897 1.5537-2.4443 2.7096-1.8948 1.2695-3.9601 1.2695-2.918 0-4.9265-1.7243-2.1222-1.819-2.1222-4.7181 0-2.918 2.3117-4.8886 2.2169-1.8948 5.3054-1.8948 1.4969 0 2.8612 0.58739 1.3832 0.58739 2.1032 1.4211 0-0.83371-0.96635-2.4822-1.1369-1.9516-2.6717-3.2022-1.9327-1.5916-3.9791-1.5916-1.2695 0-2.179 0.53054-1.0421 0.60634-1.0421 1.6674 0 0.60634 0.30317 1.0042 0.32212 0.39791 0.87161 0.39791 0.37896 0 0.66318-0.24632 0.28422-0.24633 0.28422-0.58739 0-0.24632-0.07579-0.4737-0.05685-0.24632-0.11369-0.4358-0.05684-0.13264 0.01895-0.17054 0.0379-0.019 0.24632-0.019 0.53054 0.0569 0.96635 0.49265 0.4358 0.43581 0.4358 0.9853 0 0.89056-0.72002 1.4969-0.70108 0.58739-1.6295 0.58739-1.099 0-1.819-0.73897t-0.72002-1.9895q0-1.6295 1.7243-2.539 1.5158-0.79581 3.657-0.79581 2.1032 0 4.1496 1.3453 2.0464 1.3264 3.3159 3.6191 0.89056 1.6106 1.4211 3.998 0.34106 1.5158 0.64423 4.1686 0.30317 2.6338 0.5116 3.6191 0.09474 0.49265 0.36001 0.9474 0.28422 0.41686 0.36001 0.53055zm-3.2212-6.0634q0-2.1411-1.5916-3.4106-1.5727-1.2885-4.1307-1.2885-2.0843 0-3.638 1.3643-1.5537 1.3642-1.5537 3.3727 0 2.1411 1.5727 3.6191 1.5916 1.459 3.7707 1.459 2.5201 0 4.0359-1.4211 1.5348-1.44 1.5348-3.6949z" style="font-feature-settings:normal;font-variant-caps:normal;font-variant-ligatures:normal;font-variant-numeric:normal"/>
      <path d="m76.164 202.32q0 2.4822-1.2695 5.2865-1.1937 2.6338-3.2022 4.9075 0.05684 0 0.18948 0.0189 0.15158 0 0.39791 0 0.58739 0 1.1179-0.0568 0.53054-0.0758 1.0421-0.43581 0.30317-0.24632 0.62528-0.51159 0.11369-0.11369 0.22738-0.0379 0.09474 0.0758 0.07579 0.26527-0.05684 0.37896-0.11369 0.75792-0.0379 0.36002-0.0379 0.53055 0 0.41685 0.01895 0.70107 0.0379 0.26528 0.09474 0.62529 0.0379 0.32212-0.13264 0.32212-0.13264 0-0.28422-0.13264-0.36001-0.24632-0.79582-0.39791-0.4358-0.15158-0.81476-0.20843-0.36001-0.0568-1.1748-0.0568-0.54949 0-0.87161 0.019-0.32212 0.0189-0.85266 0.11369-0.07579 0.0189-0.13264 0.0189-0.09474 0-0.13264 0-0.36001 0-0.36001-0.24632 0-0.11369 0.13264-0.34107 0.9474-1.459 1.6485-2.7854 0.92845-1.7432 1.4211-3.2212 0.60634-1.819 0.60634-3.278 0-3.1075-0.89056-4.8318-1.0611-2.0274-3.3159-2.0274-0.92845 0-1.7622 0.37896-0.83371 0.36001-1.4969 1.1369 0.34106 0.92845 0.49265 2.2548 0.15158 1.3264 0.15158 2.8233 0 1.8569-0.87161 4.3391-0.68213 1.9516-1.7053 3.8275-0.83371 1.5348-1.1748 1.8758-0.05684 0.0758-0.24632 0.0758-0.30317 0-0.36001-0.11369-0.05684-0.0758-0.01895-0.20843 0.11369-0.26527 0.13264-0.32212 1.6674-3.4485 1.6674-9.1708 0-2.7664-1.0611-4.6991-1.1558-2.0843-2.9938-2.0843-1.2506 0-2.3496 1.0422-0.92845 0.8716-1.3643 2.0653v11.634q0 0.32211 0.4358 0.68213 0.34106 0.28422 0.70108 0.56844 0.22738 0.22737 0.22738 0.37896 0 0.22738-0.41686 0.22738-0.20843 0-1.099-0.0568t-1.0611-0.0568q-0.68213 0-1.1179 0.0379-0.41686 0.0379-0.96635 0.0758-0.4358 0-0.4358-0.20843 0-0.15159 0.20843-0.36002 0.45475-0.37896 0.68213-0.58738 0.41686-0.37897 0.41686-0.70108v-11.217q0-1.6106-1.0042-2.6148-0.37896-0.37896-1.459-0.9853-0.15158-0.0947-0.15158-0.22737 0-0.0947 0.11369-0.18948 0.30317-0.22738 0.87161-0.79582 0.28422-0.28422 0.4358-0.45475 0.15158-0.17054 0.26527-0.30317 0.13264-0.15159 0.22738-0.15159t0.20843 0.11369q0.72002 0.62529 1.44 1.5727 1.0042 1.3074 1.1748 2.2548 0.66318-1.3832 1.5158-2.2738 1.5158-1.5916 3.4864-1.5916 1.6295 0 2.899 0.9095 0.87161 0.62529 1.7243 1.819 0.75792-1.1369 1.7243-1.838 1.2316-0.89055 2.6338-0.89055 3.2591 0 4.8696 2.5201 1.1937 1.8759 1.1937 4.4907z" style="font-feature-settings:normal;font-variant-caps:normal;font-variant-ligatures:normal;font-variant-numeric:normal"/>
      <path d="m97.803 210.01q-0.49265 1.6106-2.3685 3.0127-2.198 1.6485-4.7939 1.6485-1.6674 0-2.9559-0.36001-1.4779-0.41686-2.8043-1.4211-0.53054 0.66318-0.96635 1.44-0.54949 0.96635-0.54949 1.4022 0 0.53054 0.28422 0.73897 0.18948 0.13264 0.62528 0.13264 0.13264 0 0.26527-0.0379 0.11369-0.0379 0.22738-0.0758 0.07579-0.0379 0.13264 0 0.13264 0.0758 0.05684 0.30317-0.11369 0.45475-0.45475 0.83371-0.45475 0.49265-1.0611 0.49265-0.64423 0-1.0611-0.4737t-0.41686-1.2316q0-0.60634 0.41686-1.478 0.11369-0.24632 1.6295-2.6906-1.4022-1.44-2.1601-3.1264-0.83371-1.8759-0.83371-4.0359 0-3.9791 2.5769-6.8781 2.5959-2.899 6.4423-2.899 1.5348 0 3.1454 0.73897 0.89056 0.4358 1.7811 0.85266 0.17053 0.0758 0.49265 0.11369 0.32212 0.0379 0.64423 0.0379l0.56844-0.0379q0.20843 0 0.20843 0.17053 0 0.13264-0.13264 0.20843-0.30317 0.18948-0.66318 0.51159-0.49265 0.41686-0.85266 0.85267-1.838 2.0464-4.2633 5.3623-2.4253 3.3159-4.5665 6.6508 1.1179 0.79582 2.2738 1.2316 1.3643 0.51159 2.8422 0.51159 2.0464 0 3.3727-0.77687 0.96635-0.56844 2.1601-2.0274 0.11369-0.17054 0.26527-0.36002 0.15158-0.20843 0.34106-0.17053 0.24632 0.0568 0.24632 0.36001 0 0.22738-0.09474 0.4737zm-5.1918-11.179q0-1.1179-1.2127-1.7432-1.0232-0.53054-2.4632-0.53054-2.6906 0-4.4338 2.2927-1.6295 2.1601-1.6295 5.1349 0 1.7622 0.85266 3.5243 0.72002 1.4969 1.8001 2.539 1.2885-1.9138 2.0085-2.9748 1.1558-1.7053 1.9706-2.8612 1.0421-1.478 2.0843-2.9559 1.0232-1.5916 1.0232-2.4254z" style="font-feature-settings:normal;font-variant-caps:normal;font-variant-ligatures:normal;font-variant-numeric:normal"/>
      <path d="m131.99 200.61q0 5.2297-3.1454 9.4172-3.4296 4.5665-8.4887 4.5665-4.8128 0-7.8824-4.1686-2.8422-3.8654-2.8422-9.2087 0-4.3202 1.5727-7.5603 1.5158-3.1264 4.0738-4.4528 0.34106-0.15158 0.4737-0.15158 0.17053 0 0.17053 0.13263 0 0.18948-0.34106 0.4737-1.0421 0.90951-1.6864 1.9138-0.89056 1.4211-1.3453 3.3917-0.53054 2.3496-0.53054 5.8739 0 4.5286 2.7475 8.0529 2.8422 3.657 6.7266 3.657 3.5812 0 5.817-2.558 2.4443-2.8043 2.4443-7.9013 0-5.4381-2.8422-9.7014-2.7285-4.0928-5.8739-4.0928-1.2695 0-2.0274 0.64423-0.73897 0.62528-0.73897 1.6674 0 0.60634 0.36001 1.1179 0.36001 0.49265 0.9474 0.49265 0.13264 0 0.28422-0.019 0.15158-0.0189 0.34106-0.15159 0.20843-0.15158 0.28423-0.28422 0.0947-0.15158 0.15158-0.28422 0.0568-0.15158 0.0947-0.26527 0-0.11369 0.0758-0.11369 0.0947 0 0.18948 0.11369 0.18948 0.34107 0.18948 0.90951 0 0.0947 0 0.18948-0.0379 0.13263-0.0379 0.18948-0.11369 0.72002-0.68213 1.2127t-1.3643 0.49265q-1.2127 0-1.9895-0.90951-0.77687-0.9095-0.77687-2.198 0-1.9138 1.6485-3.1075 1.4779-1.0611 3.4675-1.0611 4.7181 0 7.7118 4.1686 2.8233 3.9222 2.8233 9.5119z" style="font-feature-settings:normal;font-variant-caps:normal;font-variant-ligatures:normal;font-variant-numeric:normal"/>
      <path d="m150.44 197.43q0 1.2316-0.36002 2.6148-0.28422 1.099-0.92845 2.6148-0.45475 1.08-1.1558 2.4822-0.68213 1.4022-1.459 2.899-0.34106 0.66318-1.5158 2.8043-0.75792 1.3832-1.5158 2.7664-0.20843 0.4358-0.41686 0.87161-0.11369 0.15158-0.24632 0.15158-0.13264 0-0.24633-0.15158-0.24632-0.32212-0.49264-0.79582-0.5116-1.0042-1.1369-2.1222-0.73897-1.2885-0.98529-1.7811-0.53055-1.0232-1.3643-2.9559-0.75792-1.7432-1.3264-3.7138-0.41686-1.4022-0.75792-3.1833-0.24633-1.2506-0.37897-2.2359-0.0379-0.36002-0.56844-0.75792-0.3979-0.30317-0.79581-0.60634-0.13264-0.13264-0.13264-0.24633 0-0.17053 0.32212-0.17053 0.20843-0.019 1.0042 0.0568 0.81477 0.0568 1.3453 0.0568 0.5495 0 1.3643-0.0568 0.81477-0.0758 0.9853-0.0568 0.26527 0 0.26527 0.20843 0 0.13264-0.11369 0.24632-0.4737 0.36002-0.72002 0.58739-0.45476 0.41686-0.41686 0.81477 0.17053 1.8948 0.5116 3.5243 0.41685 2.0085 1.1937 3.9791 0.85266 2.2169 1.4969 3.4675 0.51159 0.98529 1.5727 2.6717 0.77687-1.5348 1.6295-3.3349 0.9853-2.0843 1.6674-3.6759 0.87161-1.9895 1.3453-3.5054 0.62528-2.0085 0.62528-3.3917 0-0.70108-0.37896-1.3074-0.45475-0.72002-1.1369-0.72002-0.13263 0.0189-0.18948 0.0189-0.62528 0.0568-0.9095 0.68212-0.0568 0.13264-0.0758 0.26528-0.0189 0.13263-0.0189 0.20843 0 0.17053 0.0189 0.24632 0.0379 0.30317-0.13263 0.30317-0.0758 0-0.20843-0.0758-0.28422-0.15159-0.53054-0.5495-0.30317-0.49265-0.30317-1.0042 0-0.87161 0.66318-1.478t1.5348-0.60634q1.6485 0 2.558 1.2506 0.81477 1.1179 0.81477 2.6906z" style="font-feature-settings:normal;font-variant-caps:normal;font-variant-ligatures:normal;font-variant-numeric:normal"/>
      <path d="m171.17 210.01q-0.49265 1.6106-2.3685 3.0127-2.198 1.6485-4.7938 1.6485-1.6674 0-2.9559-0.36001-1.4779-0.41686-2.8043-1.4211-0.53054 0.66318-0.96635 1.44-0.54949 0.96635-0.54949 1.4022 0 0.53054 0.28422 0.73897 0.18948 0.13264 0.62529 0.13264 0.13263 0 0.26527-0.0379 0.11369-0.0379 0.22738-0.0758 0.0758-0.0379 0.13263 0 0.13264 0.0758 0.0568 0.30317-0.11369 0.45475-0.45476 0.83371-0.45475 0.49265-1.0611 0.49265-0.64423 0-1.0611-0.4737-0.41685-0.4737-0.41685-1.2316 0-0.60634 0.41685-1.478 0.11369-0.24632 1.6295-2.6906-1.4022-1.44-2.1601-3.1264-0.83371-1.8759-0.83371-4.0359 0-3.9791 2.5769-6.8781 2.5959-2.899 6.4423-2.899 1.5348 0 3.1454 0.73897 0.89056 0.4358 1.7811 0.85266 0.17054 0.0758 0.49265 0.11369 0.32212 0.0379 0.64424 0.0379l0.56844-0.0379q0.20842 0 0.20842 0.17053 0 0.13264-0.13263 0.20843-0.30317 0.18948-0.66318 0.51159-0.49265 0.41686-0.85266 0.85267-1.838 2.0464-4.2633 5.3623-2.4254 3.3159-4.5665 6.6508 1.1179 0.79582 2.2738 1.2316 1.3643 0.51159 2.8422 0.51159 2.0464 0 3.3728-0.77687 0.96635-0.56844 2.1601-2.0274 0.11368-0.17054 0.26527-0.36002 0.15158-0.20843 0.34106-0.17053 0.24633 0.0568 0.24633 0.36001 0 0.22738-0.0947 0.4737zm-5.1918-11.179q0-1.1179-1.2127-1.7432-1.0232-0.53054-2.4632-0.53054-2.6906 0-4.4338 2.2927-1.6295 2.1601-1.6295 5.1349 0 1.7622 0.85266 3.5243 0.72003 1.4969 1.8001 2.539 1.2885-1.9138 2.0085-2.9748 1.1558-1.7053 1.9706-2.8612 1.0421-1.478 2.0843-2.9559 1.0232-1.5916 1.0232-2.4254z" style="font-feature-settings:normal;font-variant-caps:normal;font-variant-ligatures:normal;font-variant-numeric:normal"/>
      <path d="m186.86 198.07q0 1.099-0.58739 1.7811t-1.5727 0.68213q-0.70108 0-1.2127-0.18948-0.49264-0.18948-0.64423-0.53054-0.0568-0.0758-0.019-0.17054 0.0379-0.0947 0.17054-0.0947 0.34106 0 0.62528-0.0947 0.30317-0.0947 0.53054-0.34106 0.32212-0.36001 0.32212-0.89056 0-0.62528-0.49265-1.0042-0.56844-0.43581-1.6295-0.43581-1.3453 0-2.6527 1.1937-1.1558 1.0611-1.7811 2.558v11.634q0 0.34106 0.41686 0.70108 0.36001 0.30316 0.72003 0.58738 0.18948 0.18948 0.18948 0.34107 0 0.22738-0.41686 0.22738-0.34107 0-0.56844-0.019-1.1748-0.0947-1.5537-0.0947-0.72002 0-1.1558 0.0379-0.41686 0.0379-0.96635 0.0758-0.41686 0-0.41686-0.20843 0-0.17054 0.22738-0.39791 0.34107-0.28422 0.5116-0.41686 0.58739-0.4737 0.58739-0.83371v-11.217q0-1.3074-0.70108-2.1601-0.4737-0.56844-2.0274-1.2506-0.0758-0.0189-0.0758-0.11369 0-0.11368 0.0758-0.18948l0.87161-0.83371q0.24632-0.24632 0.4358-0.4737 0.0568-0.0568 0.24633-0.32212 0.11369-0.13263 0.24632-0.13263 0.0758 0 0.17054 0.0568 1.0611 0.73897 1.5727 1.2695 1.1369 1.1558 1.3074 2.3685 0.70107-1.5727 2.0843-2.6338 1.6106-1.2316 3.5622-1.2316 1.6864 0 2.6338 0.81476 0.96635 0.79582 0.96635 1.9516z" style="font-feature-settings:normal;font-variant-caps:normal;font-variant-ligatures:normal;font-variant-numeric:normal"/>
    </g>
    <flowRoot fill="#000000" font-family="Meiryo" font-size="40px" letter-spacing="0px" stroke-width="1px" word-spacing="0px" style="line-height:125%" xml:space="preserve"><flowRegion><rect x="-110" y="408.57" width="554.29" height="345.71"/></flowRegion><flowPara/></flowRoot>
  </g>
</svg>
