<?xml version="1.0" encoding="UTF-8"?>
<!-- Created with Inkscape (http://www.inkscape.org/) -->
<svg width="466.09" height="179.31" version="1.1" viewBox="0 0 123.32 47.443" xmlns="http://www.w3.org/2000/svg" xmlns:cc="http://creativecommons.org/ns#" xmlns:dc="http://purl.org/dc/elements/1.1/" xmlns:rdf="http://www.w3.org/1999/02/22-rdf-syntax-ns#">
  <metadata>
    <rdf:RDF>
      <cc:Work rdf:about="">
        <dc:format>image/svg+xml</dc:format>
        <dc:type rdf:resource="http://purl.org/dc/dcmitype/StillImage"/>
        <dc:title/>
      </cc:Work>
    </rdf:RDF>
  </metadata>
  <g transform="translate(-33.59 -178.03)">
    <g fill="#005b00" stroke-width=".26458px" style="font-feature-settings:normal;font-variant-caps:normal;font-variant-ligatures:normal;font-variant-numeric:normal" aria-label="Stage">
      <path d="m60.908 202.92q0 5.209-4.3656 8.6568-4.1176 3.2494-9.773 3.2494-5.1594 0-8.7064-2.4805-3.9439-2.7781-3.9439-7.5406 0-3.3486 2.7285-5.7299 2.7533-2.4061 6.598-2.4061 3.7455 0 6.0771 1.4387 2.6045 1.6123 2.6045 4.5641 0 2.158-1.7611 3.5967-1.7363 1.4139-4.0432 1.4139-2.1084 0-3.5471-0.79375-1.7115-0.94257-1.7115-2.6789 0-1.0418 0.86816-1.7363 0.66973-0.5457 1.1906-0.62012 0.5209-0.0744 0.57051-0.0744 0.19844 0 0.19844 0.14883-0.04961 0.14882-0.09922 0.29765-0.02481 0.0496-0.09922 0.29766-0.14883 0.49609-0.14883 1.0914 0 0.76894 0.76894 1.3394 0.79375 0.5457 1.7115 0.5457 1.5379 0 2.5549-0.94258 1.017-0.94257 1.017-2.3316 0-2.0836-2.0588-3.2494-1.7859-1.017-4.2912-1.017-3.1998 0-5.5314 1.8852-2.4557 1.9844-2.4557 4.9609 0 3.8695 3.6959 6.2012 3.299 2.0836 7.8631 2.0836 4.6385 0 7.9623-2.8774 3.4479-2.9766 3.4479-7.3918 0-2.4061-1.141-4.2168-0.99219-1.5875-3.051-3.051-1.4139-1.017-4.2912-2.5053-3.6711-1.7363-7.3174-3.4975-3.6959-2.158-3.6959-5.085 0-2.9022 2.9518-4.5145 2.5549-1.3891 6.226-1.3891 2.8029 0 4.44 0.62012 2.2572 0.84336 2.2572 2.8029 0 0.79375-0.64492 1.4387-0.62012 0.62012-1.1162 0.66973-0.47129 0.0496-0.69453 0.0496-0.5457 0-0.91777-0.17363-0.27285-0.19844-0.27285-0.24804 0-0.12403 0.17363-0.29766 0.34726-0.34727 0.49609-0.71934 0.14883-0.39687 0.14883-0.81855 0-1.2154-1.3395-1.8356-1.0666-0.49609-2.6789-0.49609-2.6045 0-4.3408 0.81855-2.1084 0.99219-2.1084 2.8525 0 1.3643 1.5131 2.5053 1.0666 0.79375 3.7207 1.9596 3.9439 1.7115 4.5889 2.034 3.3238 1.6123 5.0602 2.9518 2.3316 1.7859 3.4479 4.0432 1.265 2.5549 1.265 6.2012z" style="font-feature-settings:normal;font-variant-caps:normal;font-variant-ligatures:normal;font-variant-numeric:normal"/>
      <path d="m74.898 191.51q0 0.39687-0.34727 0.39687-0.12402 0-1.2154-0.0496-1.0914-0.0496-2.0588-0.0496v16.421q0 1.7611 0.99219 3.0014 0.27285 0.34726 1.4387 1.3146 0.19844 0.14883 0.19844 0.34727 0 0.12402-0.19844 0.27285-0.19844 0.12402-0.44648 0.27285-0.32246 0.24805-0.49609 0.39688-0.69453 0.62011-0.89297 0.89297-0.19844 0.19843-0.39688 0.19843-0.17363 0-0.34727-0.0992-1.0666-0.59532-1.8852-2.034-1.141-2.0092-1.141-4.8121v-16.173q-0.79375 0-1.5131 0.0496-0.71934 0.0248-1.4635 0.0496-0.34726 0-0.34726-0.39687v-0.79375q0-0.39688 0.44648-0.39688 0.12402 0 1.0914 0.0496 0.96738 0.0496 1.7859 0.0496v-1.8852q0-1.4387-0.62012-1.6123-0.42168-0.0496-0.57051-0.0744-0.34727 0-0.34727-0.34727 0-0.14883 0.14883-0.29766 0.5457-0.47129 1.1162-0.99218 0.57051-0.54571 1.265-1.2402 0.79375-0.81855 1.2154-1.3643 0.44648-0.5457 0.86816-1.0666 0.07442-0.12402 0.19844-0.12402 0.19844 0 0.19844 0.37207-0.07442 0.64492-0.14883 1.2898-0.14883 1.5627-0.14883 3.2246v4.1176q0.81856 0 1.6123-0.0248t1.6619-0.0744q0.34727 0 0.34727 0.34727z" style="font-feature-settings:normal;font-variant-caps:normal;font-variant-ligatures:normal;font-variant-numeric:normal"/>
      <path d="m102.23 213.38q0.17363 0.27285 0.17363 0.39688 0 0.24805-0.37207 0.24805-0.0992 0-0.81855-0.0744-0.71934-0.0744-1.3643-0.0744-0.44648 0-0.99219 0.0744t-0.64492 0.0744q-0.57051 0-0.57051-0.27286 0-0.0992 0.12402-0.27285 0.22324-0.32246 0.34726-0.66972 0.14883-0.37208 0.14883-0.81856l-0.14883-2.3812q-0.96738 2.034-3.1998 3.5471-2.4805 1.6619-5.1842 1.6619-3.8199 0-6.4492-2.2572-2.7781-2.3812-2.7781-6.1764 0-3.8199 3.0262-6.3996 2.9021-2.4805 6.9453-2.4805 1.9596 0 3.7455 0.76895 1.8107 0.76894 2.7533 1.8604 0-1.0914-1.265-3.2494-1.4883-2.5549-3.4975-4.192-2.5301-2.0836-5.209-2.0836-1.6619 0-2.8525 0.69453-1.3643 0.79375-1.3643 2.1828 0 0.79375 0.39688 1.3146 0.42168 0.5209 1.141 0.5209 0.49609 0 0.86816-0.32246 0.37207-0.32246 0.37207-0.76895 0-0.32246-0.09922-0.62011-0.07441-0.32246-0.14883-0.57051-0.07441-0.17363 0.0248-0.22324 0.04961-0.0248 0.32246-0.0248 0.69453 0.0744 1.265 0.64492 0.57051 0.57051 0.57051 1.2898 0 1.1658-0.94258 1.9596-0.91777 0.76894-2.1332 0.76894-1.4387 0-2.3812-0.96738t-0.94258-2.6045q0-2.1332 2.2572-3.3238 1.9844-1.0418 4.7873-1.0418 2.7533 0 5.4322 1.7611 2.6789 1.7363 4.3408 4.7377 1.1658 2.1084 1.8604 5.2338 0.44648 1.9844 0.84336 5.457 0.39688 3.4478 0.66973 4.7377 0.12402 0.64492 0.47129 1.2402 0.37207 0.54571 0.47129 0.69453zm-4.2168-7.9375q0-2.8029-2.0836-4.4648-2.0588-1.6867-5.4074-1.6867-2.7285 0-4.7625 1.7859-2.034 1.7859-2.034 4.4152 0 2.8029 2.0588 4.7377 2.0836 1.91 4.9361 1.91 3.299 0 5.2834-1.8604 2.0092-1.8852 2.0092-4.8369z" style="font-feature-settings:normal;font-variant-caps:normal;font-variant-ligatures:normal;font-variant-numeric:normal"/>
      <path d="m129.91 216.36q0 4.0432-4.5889 6.474-3.9936 2.1084-9.401 2.1084-3.9191 0-6.8461-1.5875-3.2246-1.7363-3.2246-4.4648 0-1.6619 0.94258-2.6541 0.96738-0.96738 2.4805-0.96738 1.4139 0 2.2572 0.62012 0.86817 0.62011 1.017 1.7115 0.0496 0.24805 0.0496 0.37207 0 0.5457-0.29765 0.96738-0.14883 0.14883-0.24805 0.14883-0.14883 0-0.19844-0.14883-0.29765-0.71933-0.86816-1.0666-0.5457-0.32246-1.3146-0.32246-0.71934 0-1.2154 0.59531-0.47129 0.62012-0.47129 1.3395 0 1.9844 2.5549 3.1254 2.2324 0.99219 5.4322 0.99219 3.8943 0 6.9453-2.0588 3.2742-2.2076 3.2742-5.4322 0-2.8277-2.5797-4.6137-2.3564-1.6371-5.6059-1.6371-2.9766 0-4.9609 0.94258-1.0418 0.49609-1.9844 1.4387-0.22324 0.22324-0.49609-0.0496-0.5209-0.32246-0.84336-0.57051t-0.5457-0.47129q-0.19844-0.19844 0.0496-0.44648 0.0248-0.0248 1.3394-0.86817 0.44648-0.27285 1.141-0.81855 1.3643-0.99219 2.1084-1.8107 0.54571-0.57051 0.96739-1.3146-2.7781-0.5209-5.1098-2.4805-2.927-2.4557-2.927-5.7547 0-3.6463 3.1998-5.9779 2.9766-2.158 7.0693-2.158 2.2076 0 3.6959 0.32246 1.5131 0.29766 3.1998 1.2154 0.4961-0.5457 0.79375-1.141 0.39688-0.81856 0.39688-1.7363 0-0.71934-0.37207-1.141-0.44649-0.5209-1.265-0.44648-0.42168 0-0.74414 0.19844-0.12403 0.0744-0.39688 0.34726-0.12402 0.12403-0.19844 0.0744-0.0744-0.0496-0.0496-0.27286 0.12403-0.86816 0.54571-1.5379 0.64492-0.99218 1.6867-0.99218 1.4387 0 2.1828 0.96738 0.64492 0.84336 0.64492 2.3564 0 1.141-0.66973 2.4061-0.5705 1.0914-1.265 1.6123 1.7363 1.2898 2.5797 2.8277t0.84336 3.6215q0 3.6463-3.2246 5.9035-2.9766 2.0836-7.2926 2.0836-0.39687 0-0.89296-0.0248-0.47129-0.0496-0.74415-0.0744-0.42167 0.71934-1.4387 1.7115-1.017 0.99219-1.7363 1.4635 1.2898-0.42167 2.6541-0.5705 1.3642-0.17364 2.8525-0.17364 4.2416 0 7.3422 1.7611 3.7703 2.158 3.7703 6.0772zm-4.6633-18.207q0-1.5627-0.39687-2.7037-0.39688-1.141-1.3891-2.2572-0.57051 0.37207-1.1658 0.5705-0.57051 0.17364-1.3146 0.17364-1.4139 0-2.2076-0.79375-0.62012-0.62012-0.62012-1.2898 0-0.27285 0.0992-0.27285 0.0744 0 0.19844 0.12402 0.37207 0.44649 0.59531 0.59532 0.59531 0.39687 1.4387 0.39687 0.59532 0 1.0914-0.14883 0.49609-0.14882 0.89297-0.39687-0.69453-0.69453-2.034-1.2154-1.3395-0.5209-2.7285-0.5209-3.175 0-5.5066 2.0588-2.3316 2.034-2.3316 5.085 0 2.6789 1.3891 4.6385 1.4139 1.9596 3.9688 2.6541 0.14883-0.49609 0.14883-0.91777 0-0.74414-0.4961-1.5627-0.17363-0.29766 0.19844-0.42168 0.37207-0.14883 0.62012-0.22324 0.27285-0.0992 0.79375-0.32246 0.5209-0.22324 0.86816-0.44649 0.37207-0.24804 0.79375-0.52089 0.14883-0.14883 0.24805-0.0496 0.0992 0.0744 0.0992 0.29765 0 0.57051-0.5209 1.9596-0.49609 1.3891-0.96738 2.3564 0.44648 0.0744 0.89297 0.0744 2.6789 0 4.9609-2.034 2.3812-2.1332 2.3812-4.8865z" style="font-feature-settings:normal;font-variant-caps:normal;font-variant-ligatures:normal;font-variant-numeric:normal"/>
      <path d="m156.26 208.77q-0.64492 2.1084-3.1006 3.944-2.8774 2.158-6.2756 2.158-2.1828 0-3.8695-0.47128-1.9348-0.54571-3.6711-1.8604-0.69453 0.86817-1.265 1.8852-0.71934 1.265-0.71934 1.8356 0 0.69453 0.37207 0.96738 0.24805 0.17363 0.81856 0.17363 0.17363 0 0.34726-0.0496 0.14883-0.0496 0.29766-0.0992 0.0992-0.0496 0.17363 0 0.17363 0.0992 0.0744 0.39688-0.14883 0.59531-0.59532 1.0914-0.59531 0.64492-1.3891 0.64492-0.84336 0-1.3891-0.62012-0.54571-0.62012-0.54571-1.6123 0-0.79375 0.54571-1.9348 0.14883-0.32246 2.1332-3.5223-1.8356-1.8852-2.8277-4.0928-1.0914-2.4557-1.0914-5.2834 0-5.209 3.3734-9.0041 3.3982-3.7951 8.4336-3.7951 2.0092 0 4.1176 0.96739 1.1658 0.5705 2.3316 1.1162 0.22324 0.0992 0.64492 0.14882 0.42168 0.0496 0.84336 0.0496l0.74414-0.0496q0.27285 0 0.27285 0.22325 0 0.17363-0.17363 0.27285-0.39687 0.24805-0.86816 0.66972-0.64492 0.54571-1.1162 1.1162-2.4061 2.6789-5.5811 7.0197t-5.9779 8.7064q1.4635 1.0418 2.9766 1.6123 1.7859 0.66973 3.7207 0.66973 2.6789 0 4.4152-1.017 1.265-0.74414 2.8277-2.6541 0.14882-0.22325 0.34726-0.47129 0.19844-0.27285 0.44649-0.22325 0.32246 0.0744 0.32246 0.47129 0 0.29766-0.12403 0.62012zm-6.7965-14.635q0-1.4635-1.5875-2.282-1.3394-0.69453-3.2246-0.69453-3.5223 0-5.8043 3.0014-2.1332 2.8277-2.1332 6.7221 0 2.3068 1.1162 4.6137 0.94258 1.9596 2.3564 3.3238 1.6867-2.5053 2.6293-3.8943 1.5131-2.2324 2.5797-3.7455 1.3643-1.9348 2.7285-3.8695 1.3394-2.0836 1.3394-3.175z" style="font-feature-settings:normal;font-variant-caps:normal;font-variant-ligatures:normal;font-variant-numeric:normal"/>
    </g>
    <flowRoot fill="#000000" font-family="Meiryo" font-size="40px" letter-spacing="0px" stroke-width="1px" word-spacing="0px" style="line-height:125%" xml:space="preserve"><flowRegion><rect x="-110" y="408.57" width="554.29" height="345.71"/></flowRegion><flowPara/></flowRoot>
  </g>
</svg>
