<?xml version="1.0" encoding="UTF-8"?>
<!-- Created with Inkscape (http://www.inkscape.org/) -->
<svg width="1e3" height="147.06" version="1.1" viewBox="0 0 264.58 38.91" xmlns="http://www.w3.org/2000/svg" xmlns:cc="http://creativecommons.org/ns#" xmlns:dc="http://purl.org/dc/elements/1.1/" xmlns:rdf="http://www.w3.org/1999/02/22-rdf-syntax-ns#">
  <metadata>
    <rdf:RDF>
      <cc:Work rdf:about="">
        <dc:format>image/svg+xml</dc:format>
        <dc:type rdf:resource="http://purl.org/dc/dcmitype/StillImage"/>
        <dc:title/>
      </cc:Work>
    </rdf:RDF>
  </metadata>
  <g display="none" fill="none" shape-rendering="auto" stroke="#000" stroke-linejoin="round" stroke-width=".52917">
    <rect x=".26458" y="-.51261" width="25.929" height="39.158" color="#000000" color-rendering="auto" display="inline" image-rendering="auto" solid-color="#000000" style="isolation:auto;mix-blend-mode:normal"/>
    <rect x="26.723" y="-.51261" width="25.929" height="39.158" color="#000000" color-rendering="auto" display="inline" image-rendering="auto" solid-color="#000000" style="isolation:auto;mix-blend-mode:normal"/>
    <rect x="53.181" y="-.51261" width="25.929" height="39.158" color="#000000" color-rendering="auto" display="inline" image-rendering="auto" solid-color="#000000" style="isolation:auto;mix-blend-mode:normal"/>
    <rect x="79.64" y="-.51261" width="25.929" height="39.158" color="#000000" color-rendering="auto" display="inline" image-rendering="auto" solid-color="#000000" style="isolation:auto;mix-blend-mode:normal"/>
    <rect x="106.1" y="-.51261" width="25.929" height="39.158" color="#000000" color-rendering="auto" display="inline" image-rendering="auto" solid-color="#000000" style="isolation:auto;mix-blend-mode:normal"/>
    <rect x="132.56" y="-.51261" width="25.929" height="39.158" color="#000000" color-rendering="auto" display="inline" image-rendering="auto" solid-color="#000000" style="isolation:auto;mix-blend-mode:normal"/>
    <rect x="159.01" y="-.51261" width="25.929" height="39.158" color="#000000" color-rendering="auto" display="inline" image-rendering="auto" solid-color="#000000" style="isolation:auto;mix-blend-mode:normal"/>
    <rect x="185.47" y="-.51261" width="25.929" height="39.158" color="#000000" color-rendering="auto" display="inline" image-rendering="auto" solid-color="#000000" style="isolation:auto;mix-blend-mode:normal"/>
    <rect x="211.93" y="-.51261" width="25.929" height="39.158" color="#000000" color-rendering="auto" display="inline" image-rendering="auto" solid-color="#000000" style="isolation:auto;mix-blend-mode:normal"/>
    <rect x="238.39" y="-.51261" width="25.929" height="39.158" color="#000000" color-rendering="auto" display="inline" image-rendering="auto" solid-color="#000000" style="isolation:auto;mix-blend-mode:normal"/>
  </g>
  <g transform="translate(.52917 -182.29)">
    <g fill="#005b00">
      <path d="m24.383 199.94q0 6.4492-3.6215 11.46-3.7703 5.209-8.9793 5.209-5.0354 0-8.0119-4.0184-2.9518-4.0432-2.9518-10.864 0-3.8447 1.6371-7.7887 1.3395-3.2494 3.0758-5.0602 0.37207-0.37207 0.49609-0.24805t0.12402 0.29766q0 0.14882-0.0248 0.22324-0.04961 0.14883-0.09922 0.27285-0.89297 2.0588-1.4635 4.7129t-0.57051 5.1098q0 6.9453 2.4061 11.237t6.3252 4.2912q3.6711 0 5.8539-3.0262 2.4805-3.4478 2.4805-10.17 0-6.9701-2.6293-11.757-2.5301-4.6137-5.9531-4.6137-3.1254 0-3.1254 2.5301 0 0.62012 0.37207 1.0418 0.39687 0.39687 0.91777 0.39687 0.37207 0 0.64492-0.27285 0.24805-0.34726 0.34727-0.49609 0.09922-0.14883 0.27285-0.14883 0.14883 0 0.22324 0.24805 0.09922 0.24804 0.09922 0.79375 0 0.17363-0.07441 0.76894-0.07441 0.57051-0.74414 1.1658-0.66973 0.57051-1.4635 0.57051-1.2402 0-2.0588-0.99219-0.81856-1.017-0.81856-2.5301 0-1.7859 1.7115-2.9518 1.7363-1.1658 4.0928-1.1658 4.8617 0 8.1855 4.5641 3.3238 4.5641 3.3238 11.212z" style="font-feature-settings:normal;font-variant-caps:normal;font-variant-ligatures:normal;font-variant-numeric:normal"/>
      <path d="m43.412 185.35q-0.99219 3.0758-1.4635 5.0106-0.66973 2.7533-1.017 6.0772-0.34726 3.3238-0.34726 8.0119 0 3.3734 0.59531 5.8539 0.5209 2.1332 1.7363 3.9191 0.12402 0.14883 0.12402 0.32246t-0.27285 0.32246q-0.57051 0.12402-1.0914 0.24805-0.49609 0.12402-1.141 0.37207-0.62012 0.24805-1.1162 0.5209-0.49609 0.29765-0.66973 0.39687l-0.12402 0.0744-0.22324 0.0496q-0.19844 0-0.29766-0.27286-0.37207-0.79375-0.59531-3.175-0.19844-2.406-0.19844-4.7625 0-4.2416 0.96738-9.8723 0.96738-5.6307 2.4557-10.468-0.74414 0.96738-1.6619 1.6619-1.2154 0.91778-2.3068 0.91778-0.81855 0-1.4883-0.4961-0.64492-0.49609-0.64492-1.3146 0-0.44648 0.04961-0.74414 0.07441-0.29765 0.49609-0.59531l0.19844 0.12402q0.44648 0.54571 0.64492 0.64493 0.37207 0.19843 0.89297 0.19843 1.5131 0 2.8525-1.5379 0.17363-0.19843 1.7611-2.5797 0.19844-0.32247 0.5457-0.19844 0.39688 0.14883 0.69453 0.29765 0.32246 0.14883 0.5209 0.32246 0.19844 0.17364 0.19844 0.37208 0 0.14882-0.07441 0.29765z" style="font-feature-settings:normal;font-variant-caps:normal;font-variant-ligatures:normal;font-variant-numeric:normal"/>
      <path d="m75.535 211.65q-0.32246 0.59531-0.64492 1.1658-0.29766 0.62012-0.5209 1.2402-0.19844 0.59531-0.29766 1.141-0.09922 0.54571-0.17363 1.0666-0.09922 0.37207-0.32246 0.37207-0.12402 0-0.27285-0.0744-1.7363-0.79375-3.4727-1.1162-2.3564-0.42168-5.3082-0.42168-3.5967 0-6.1764 0.69453-0.14883 0.0496-2.5549 0.94258-0.32246 0.0992-0.32246-0.19844l0.0248-0.24805q0.17363-0.84335 1.265-2.7285 1.017-1.7611 2.158-3.3238 2.158-2.9022 5.9779-6.2508 3.8447-3.3734 4.9113-4.8617 2.0092-2.7781 2.0092-6.4988 0-2.9518-1.91-5.0354-1.9844-2.158-5.085-2.158-2.6789 0-4.5145 1.5131-1.8355 1.5131-1.8355 3.5471 0 1.4387 0.59531 2.3564 0.69453 1.0666 1.9348 1.0666 0.59531 0 0.99219-0.17364 0.42168-0.19844 0.84336-0.66972 0.14883-0.14883 0.24805-0.32247 0.09922-0.19843 0.17363-0.44648 0.07441-0.24805 0.32246-0.24805 0.39688 0.34727 0.5209 1.0418 0.12402 0.66973 0.12402 1.2154-0.09922 1.1162-1.1906 1.9348-1.0666 0.79375-2.4309 0.79375-1.8604 0-3.0758-1.5131-1.1906-1.5379-1.1906-3.5471 0-3.3486 2.7533-5.6059 2.6045-2.1332 6.226-2.1332 4.2664 0 6.9701 2.2076 3.051 2.5053 3.051 7.0693 0 2.406-1.1162 4.3904-0.89297 1.5875-2.8525 3.3486-0.59531 0.54571-3.7703 3.0758-1.8852 1.4635-3.7455 2.927-1.9596 1.5627-3.1006 2.8773-1.4635 1.6619-2.7781 4.068 2.282-1.0666 4.6881-1.5131 2.4309-0.47128 5.4818-0.47128 0.76894 0 3.0014 0.12402 0.34727 0 0.74414-0.0248t0.99219-0.12402q0.59531-0.0992 1.3395-0.39687 0.47129-0.19844 0.96738-0.42168 0.22324-0.0744 0.32246 0.0248 0.09922 0.0992 0.02481 0.32246z" style="font-feature-settings:normal;font-variant-caps:normal;font-variant-ligatures:normal;font-variant-numeric:normal"/>
      <path d="m103.01 204.11q0 5.0602-3.8447 8.6816-4.068 3.8199-10.294 3.8199-3.0758 0-5.3578-1.3643-2.5797-1.5379-2.5797-4.0928 0-1.2402 0.96738-2.1332 0.99219-0.89296 2.3068-0.89296 1.4387 0 2.3068 0.66972 0.76894 0.59532 0.76894 1.4635 0 0.42168-0.02481 0.57051l-0.07441 0.22324q-0.02481 0.17363-0.22324 0.17363l-0.22324-0.0744q-0.42168-0.42168-0.84336-0.57051-0.42168-0.17363-0.99219-0.17363-0.74414 0-1.2154 0.57051-0.47129 0.5705-0.47129 1.4635 0 1.2402 1.7859 2.034 1.5875 0.69453 3.5719 0.69453 4.4152 0 7.6895-3.1006 3.2742-3.1254 3.2742-7.4166 0-2.9022-1.9348-4.7873-2.0092-1.9596-5.2586-1.9596-2.5797 0-4.192 0.91778-0.66973 0.37207-1.5627 1.3643-0.12402 0.12402-0.24805 0.12402-0.12402 0-0.24805-0.12402l-0.79375-0.64493q-0.17363-0.17363 0.04961-0.39687 0.59531-0.59531 3.7703-3.3238l5.6555-4.8617q3.0758-2.6541 3.8695-3.4727-1.0914 0.24805-2.158 0.34727-1.0666 0.0992-2.3564 0.0992-1.1658 0-2.1332-0.0744-2.927-0.22325-3.2742-0.22325-1.5875 0-2.9021 0.81856-1.1658 0.94258-1.4635 1.1658l-0.14883 0.0744-0.12402 0.0248q-0.22324 0-0.29766-0.22325-0.07441-0.22324-0.17363-0.49609-0.09922-0.29766-0.44648-0.81855-0.22324-0.32246-0.47129-0.59532-0.24805-0.27285-0.44648-0.39687-0.19844-0.14883-0.19844-0.29766 0-0.17363 0.27285-0.34726 0.71934-0.59532 2.8029-1.1658 2.0836-0.57051 4.192-0.57051 1.3146 0 5.1594 0.84336 1.8107 0.39687 3.2742 0.39687 1.2402 0 2.0836-0.37207 0.64493-0.37207 1.2898-0.76894 0.47129 0.19843 0.94258 0.59531 0.47129 0.39687 0.29766 0.5457-0.62012 0.4961-1.9844 1.6371-1.6619 1.4139-3.7703 3.2246-2.7037 2.3564-6.4492 5.6555 0.96738-0.32246 1.8355-0.42168 0.89297-0.12402 2.0836-0.12402 3.7703 0 6.2012 1.9596 2.7285 2.2076 2.7285 6.1268z" style="font-feature-settings:normal;font-variant-caps:normal;font-variant-ligatures:normal;font-variant-numeric:normal"/>
      <path d="m131.07 201.38q0 2.2076-2.034 3.7455-1.9348 1.4635-4.4648 1.4635h-0.76895q-0.86816 0-1.265-0.0248-0.37208-0.0496-1.0914-0.27285 0 1.8604 0.27285 3.2494 0.0744 0.42168 0.5209 2.0092 0.32246 1.1658 0.81855 2.0092 0.24805 0.42168 0.66973 0.91778l0.12402 0.17363 0.0248 0.14883q0 0.12402-0.0992 0.19843l-0.19843 0.0744h-0.37207q-0.44649 0-0.84336 0.0744-0.39688 0.0744-1.1162 0.37207-0.69454 0.29766-1.1906 0.59532-0.22324 0.14882-0.5457 0.39687-0.19844 0.14883-0.32246 0.14883-0.17364 0-0.27286-0.24805-0.29765-0.79375-0.44648-3.6215-0.14883-2.8525-0.14883-6.6973-0.62012-0.17363-1.3394-0.24805-0.69453-0.0744-1.5379-0.0744-1.3146 0-2.5549 0.17363-1.2402 0.14883-2.6541 0.4961-1.3891 0.34726-2.5797 0.96738-0.66973 0.39687-1.3394 0.76895-0.4961 0.19843-0.4961-0.37208-0.0248-0.17363-0.0248-0.29765 0-1.2402 0.74414-3.7951 0.76895-2.5549 2.0588-5.2338 1.5131-3.1254 3.2742-5.2834 2.5797-3.175 5.5314-5.085 2.4557-1.5875 6.7717-3.1998 0.32246-0.12403 0.74414-0.32246l1.141-0.5209q0.22324-0.0744 0.29766 0.0496 0.0744 0.12402 0 0.34726l-1.6867 3.3734q-0.94258 2.2324-1.6371 4.8121-0.86817 3.2246-1.1906 5.6555-0.29765 2.406-0.29765 5.8539 0.99218 0.27285 1.8355 0.42168 0.86817 0.12402 1.8356 0.12402 1.6123 0 2.9022-0.57051 1.4635-0.64492 1.4635-1.6619 0-0.62012-0.27285-1.0418-0.24804-0.42168-0.76894-0.49609-0.17363-0.0248-0.37207 0.0744-0.17364 0.0744-0.32246 0.19844-0.14883 0.12402-0.29766 0.12402-0.17363 0-0.14883-0.29766 0-0.49609 0.39688-1.2402 0.42168-0.74414 0.79375-0.89297 0.19843-0.0496 0.34726-0.0496 0.74414 0 1.3891 0.64492 0.74414 0.74414 0.74414 1.8852zm-7.3918-14.932q-3.0262 0.64492-6.2012 2.9766-3.5471 2.6045-6.0524 6.4492-2.8773 4.4152-3.8695 9.7234 1.5627-0.81856 3.0014-1.2898 1.8356-0.62011 3.2742-0.74414 1.4387-0.14882 2.3564-0.14882 1.0418 0 2.4309 0.24804 0-1.8356 0.17364-3.1006 0.19843-1.2898 0.64492-2.9766 0.12402-0.49609 0.91777-3.1502 0.69453-2.2572 1.4635-4.0928 0.64492-1.5627 1.8604-3.8943z" style="font-feature-settings:normal;font-variant-caps:normal;font-variant-ligatures:normal;font-variant-numeric:normal"/>
      <path d="m155.81 202.22q0 5.6803-4.2168 9.9715-4.3408 4.4152-10.468 4.4152-2.8525 0-4.8617-1.2402-2.282-1.3891-2.282-3.8199 0-1.1658 0.74414-2.0836 0.76894-0.94258 1.8852-0.94258 1.1162 0 1.8603 0.47129 0.76895 0.44648 0.76895 1.4139 0 0.91777-0.44648 1.4387-0.14883 0.17363-0.29766 0.17363t-0.34727-0.27285q-0.0992-0.22324-0.27285-0.37207-0.27285-0.22324-0.76894-0.22324-0.37207 0-0.62012 0.37207-0.22324 0.34726-0.22324 0.76894 0 1.5379 1.8355 2.4061 1.5131 0.71933 3.6215 0.71933 4.4152 0 7.6646-3.7703 3.2494-3.7951 3.2494-8.6816 0-3.2246-1.7115-5.6555-1.8604-2.6293-4.7377-2.6293-1.7611 0-3.1254 0.5209-1.6619 0.64492-2.2324 1.8604-0.0992 0.27286-0.17364 0.57051-0.0744 0.27285-0.24804 0.81856-0.12402 0.12402-0.37207 0.0992l-1.8356-0.19844q-0.42168-0.0992-0.34726-0.64492l0.44648-2.7285q0.19844-1.7363 0.19844-3.3238-0.0992-5.085-0.0992-5.8539 0-0.24805 0.0496-0.59532l0.14883-0.27285q0.12402-0.12402 0.44648-0.12402 2.2572 0.59531 4.6881 0.99219 2.4557 0.39687 5.0354 0.39687 1.4139 0 2.1332-0.22324 1.0914-0.34727 1.0914-1.265 0-0.59531-0.22325-0.89297-0.12402-0.17363-0.34726-0.27285-0.22324-0.0992-0.22324-0.22324 0-0.17364 0.22324-0.29766 0.24805-0.14883 0.59531-0.17363 0.37207-0.0248 0.81856-0.0248 0.99218 0 1.7363 0.71934 0.74415 0.71934 0.74415 1.7115 0 1.6619-1.8356 2.5549-1.4883 0.71933-3.6215 0.71933-2.6293 0-5.4074-0.5209-1.8604-0.34726-4.4648-1.1162 0 0.84336-0.0248 2.3316t-0.0248 2.4309q0 2.5053-0.39688 4.8121 1.2898-2.1332 3.299-3.175 2.034-1.0418 4.4896-1.0418 3.8943 0 6.1764 2.6541 2.3068 2.6293 2.3068 7.3174z" style="font-feature-settings:normal;font-variant-caps:normal;font-variant-ligatures:normal;font-variant-numeric:normal"/>
      <path d="m182.19 205.94q0 4.1176-2.9766 7.3174-3.1006 3.3486-7.3918 3.3486-5.209 0-8.4088-4.5144-2.9022-4.1176-2.9022-9.8723 0-7.0445 4.2416-12.427 4.44-5.6307 10.79-5.6307 2.2324 0 3.7455 0.89297 1.7363 1.017 2.0588 2.927 0.0248 0.12402 0.0248 0.34726 0 1.017-0.89297 1.8108-0.86816 0.76894-1.9596 0.76894-0.69453 0-1.3146-0.19844-0.62011-0.22324-1.017-0.64492-0.17363-0.17363-0.17363-0.32246 0-0.22324 0.37207-0.27285 0.79375 0 1.265-0.59531 0.37207-0.47129 0.37207-1.1906 0-1.0418-0.96738-1.5875-0.96739-0.5457-2.2076-0.5457-4.7377 0-7.8631 4.4152-3.2494 4.5641-3.2494 11.857 0 5.1098 2.3564 8.6568 2.5797 3.8943 6.8709 3.8943 3.1502 0 5.2586-2.5549 2.034-2.4557 2.034-5.8291 0-3.1006-1.9348-5.4322-2.0092-2.4061-4.9113-2.4061-1.265 0-2.5301 0.57051-1.2402 0.57051-1.6867 1.5627-0.0992 0.19844-0.14883 0.4961-0.0496 0.27285-0.0496 0.44648 0.0496 0.5209 0.0496 0.69453 0 0.32246-0.29766 0.32246-0.14882 0-0.29765-0.17363-0.22324-0.32246-0.42168-0.62012-0.34727-0.52089-0.86817-1.0666-0.39687-0.39687-0.66972-0.59531-0.27285-0.22324-0.37207-0.29766-0.14883-0.14882-0.14883-0.37207 0-0.14882 0.0992-0.32246 0.69453-1.141 2.2324-2.1084 2.158-1.3642 4.6137-1.3642 4.0928 0 6.7221 3.1502 2.5549 3.051 2.5549 7.4662z" style="font-feature-settings:normal;font-variant-caps:normal;font-variant-ligatures:normal;font-variant-numeric:normal"/>
      <path d="m208.95 185.3q-0.37207 0.4961-1.8107 1.9348l-2.9766 2.9766q-1.8604 1.9348-2.9022 3.2742-2.5053 3.2494-3.423 4.6633-1.5875 2.4557-2.3564 4.7129-0.86817 2.5797-0.86817 5.6059 0 2.158 0.4961 3.4478 0.49609 1.2898 1.6371 2.0092 0.17363 0.0992 0.17363 0.22325 0 0.14882-0.22324 0.27285-0.4961 0.22324-1.017 0.49609-0.5209 0.24805-0.96739 0.49609l-1.6371 1.0418-0.29765 0.12402q-0.17364 0-0.44649-0.27285-0.49609-0.71933-1.017-2.6541-0.5209-1.9348-0.5209-3.4478 0-2.5549 0.79375-5.0106 0.66973-2.0836 1.9348-4.2912 0.71933-1.2402 2.3316-3.5471 1.3891-1.9596 3.9191-4.7873 2.6541-2.9518 5.1098-5.2338-1.6619 0.49609-2.8525 0.69453-1.1906 0.19844-2.7037 0.19844-1.3146 0-4.7873-0.29766-1.7363-0.14883-2.9518-0.14883-1.5627 0-2.9518 1.1658-1.2402 1.3394-1.5627 1.6619l-0.32246 0.14882q-0.14883 0-0.14883-0.17363 0-0.12402 0.0992-0.39687 0.0992-0.29766 0.22324-0.59532 0.64492-1.5627 0.89297-2.2572l0.59531-1.9844q0.12402-0.34726 0.62012-0.39687 0.5209-0.0744 2.1828-0.0992 1.6619-0.0496 2.3564-0.0496h0.74414q1.5379 0 3.3734 0.29765 3.9439 0.64493 5.6555 0.64493 1.91 0 3.1254-0.54571 0.44648-0.19843 1.2898-0.89297l0.14883-0.0744 0.12402-0.0248q0.14883 0 0.27285 0.0992l0.59531 0.44649q0.12403 0.12402 0.12403 0.32246z" style="font-feature-settings:normal;font-variant-caps:normal;font-variant-ligatures:normal;font-variant-numeric:normal"/>
      <path d="m235.7 183.52-0.0992 0.64493q-0.64492 1.91-3.2494 2.6045-1.4139 0.37207-3.5967 0.37207-1.2402 0-4.4896-0.42168-1.7115-0.22324-2.8525-0.22324-2.0588 0-3.5223 1.2898-1.4387 1.265-1.4387 2.927 0 2.8029 3.2246 4.7129 0.0992 0.0496 5.0602 2.1828 1.7859-1.017 3.5967-2.0588 1.9596-1.3146 1.9596-2.7533 0-0.94258-0.37207-1.4387-0.27285-0.34727-0.64492-0.42168-0.34727-0.0992-0.34727-0.24805 0-0.14883 0.22324-0.32246 0.5209-0.39688 1.3395-0.39688 0.96738 0 1.6123 0.81856 0.66973 0.79375 0.66973 1.8604 0 2.158-3.3486 3.9936-1.5627 0.81856-3.1006 1.6123 3.4975 1.0914 5.7051 3.2742 2.5797 2.5549 2.5797 5.9531 0 4.068-3.5223 6.6725-3.299 2.4557-7.7887 2.4557-4.5889 0-7.5406-2.4805-2.927-2.5053-2.927-6.5484 0-3.0758 3.0262-5.7795 2.4061-2.158 5.3578-3.1006-2.1332-1.2898-4.2416-2.6045-2.6045-2.0836-2.6045-4.9857 0-3.3734 2.7285-5.209 2.5797-1.7363 6.9453-1.7363 1.1906 0 4.3408 0.5705 1.5131 0.27286 2.7533 0.27286 1.7859 0 2.4805-0.27286 0.17363-0.0744 1.141-0.76894l0.29766-0.32246q0.12402-0.14883 0.29766-0.32246 0.12402-0.12403 0.22324-0.0744 0.12402 0.0496 0.12402 0.27285zm-4.2168 23.961q0-1.9844-1.9348-3.9688-1.4883-1.5131-3.7951-2.7781-1.7115-0.94258-2.7037-1.1906-0.86816 0.17364-2.4309 1.017-2.1828 1.1658-3.5719 2.6789-1.8356 2.0092-1.8356 4.2416 0 3.6463 2.5301 5.8539 2.2324 1.9348 5.2586 1.9348 3.3734 0 5.8539-2.1332 2.6293-2.2572 2.6293-5.6555z" style="font-feature-settings:normal;font-variant-caps:normal;font-variant-ligatures:normal;font-variant-numeric:normal"/>
      <path d="m262.71 198.5q0 8.7809-5.6059 15.478-5.6059 6.6973-12.799 6.6973-2.282 0-3.6959-0.59531-1.8604-0.76895-1.8604-2.3812 0-0.91778 0.66973-1.5131 0.69453-0.57051 1.6619-0.57051 0.4961 0 0.91778 0.14883 0.44648 0.12402 0.66972 0.34727 0.22324 0.22324 0.22324 0.34726 0 0.17363-0.32246 0.19844-0.32246 0.0496-0.5457 0.29766-0.24805 0.27285-0.24805 0.79375 0 0.89296 1.0914 1.265 0.79375 0.27286 2.1332 0.27286 5.4818 0 9.8227-5.3082 4.6137-5.6555 4.6137-13.742 0-5.5314-1.8852-9.4506-2.3564-4.8865-6.7965-4.8865-3.2246 0-5.3082 2.1084-2.282 2.3068-2.282 6.2756 0 3.423 1.8355 5.9531 1.9844 2.7285 5.0106 2.7285 1.3891 0 2.4557-0.66973 1.2154-0.76894 1.2154-2.0092 0-0.86816-0.19843-1.2402-0.17364-0.39688-0.54571-0.59531l-0.19843-0.24805q0-0.14883 0.24804-0.29766 0.54571-0.27285 1.141-0.19843 1.2898 0 2.0836 1.0666 0.79375 1.0914 0.79375 2.5053 0 2.2076-2.0836 3.5471-1.8852 1.2154-4.4648 1.2154-4.2416 0-6.8213-3.2246-2.5549-3.2246-2.5549-8.384 0-4.2664 3.1006-7.2678 3.1006-3.0014 7.367-3.0014 5.0602 0 8.2352 4.4896 2.927 4.1424 2.927 9.8475z" style="font-feature-settings:normal;font-variant-caps:normal;font-variant-ligatures:normal;font-variant-numeric:normal"/>
    </g>
    <flowRoot fill="#000000" font-family="Meiryo" font-size="40px" letter-spacing="0px" stroke-width="1px" word-spacing="0px" style="line-height:125%" xml:space="preserve"><flowRegion><rect x="-110" y="408.57" width="554.29" height="345.71"/></flowRegion><flowPara/></flowRoot>
  </g>
</svg>
