<?xml version="1.0" encoding="UTF-8"?>
<!-- Created with Inkscape (http://www.inkscape.org/) -->
<svg width="100" height="100" version="1.1" viewBox="0 0 26.458 26.458" xmlns="http://www.w3.org/2000/svg" xmlns:cc="http://creativecommons.org/ns#" xmlns:dc="http://purl.org/dc/elements/1.1/" xmlns:rdf="http://www.w3.org/1999/02/22-rdf-syntax-ns#">
  <metadata>
    <rdf:RDF>
      <cc:Work rdf:about="">
        <dc:format>image/svg+xml</dc:format>
        <dc:type rdf:resource="http://purl.org/dc/dcmitype/StillImage"/>
        <dc:title/>
      </cc:Work>
    </rdf:RDF>
  </metadata>
  <g transform="translate(0 -270.54)">
    <path d="m13.229 271.34c-6.8689 0-12.435 5.5666-12.435 12.436 0 6.8652 5.5662 12.435 12.435 12.435 6.8692 0 12.436-5.5701 12.436-12.435 0-6.8689-5.5665-12.436-12.436-12.436zm0.32393 23.932v-2.6953c1.1047-0.0394 2.2059-0.25897 3.2386-0.71236l-0.47868-0.47836c-0.88526 0.3561-1.8208 0.52895-2.7599 0.56492v-5.0052h-0.64398v5.0052c-0.93906-0.0359-1.875-0.20882-2.7599-0.56492l-0.47869 0.47495c1.0326 0.45336 2.1338 0.67634 3.2385 0.71577v2.6953c-6.0916-0.16939-11.007-5.0844-11.176-11.176h2.6951c0.03938 1.1046 0.25851 2.2023 0.71186 3.2348l0.47904-0.47839c-0.35629-0.88518-0.52897-1.8173-0.5652-2.7564h5.0055v-0.64392h-5.0055c0.03619-0.93903 0.20892-1.8751 0.5652-2.7598l-0.47904-0.47879c-0.45335 1.0329-0.67247 2.134-0.71186 3.2386h-2.6951c0.16882-6.0956 5.0882-11.007 11.176-11.176v2.6951c-1.1047 0.0399-2.2059 0.25901-3.2385 0.71237l0.47869 0.47878c0.88489-0.35611 1.8208-0.52895 2.7599-0.56492v5.0087h0.64398v-5.0087c0.93907 0.0359 1.8746 0.20881 2.7564 0.56492l0.47833-0.47878c-1.0323-0.45336-2.13-0.67251-3.2347-0.71237v-2.6951c6.092 0.17311 11.003 5.0847 11.177 11.176h-2.6955c-0.03978-1.1046-0.25921-2.2057-0.71608-3.2386l-0.47481 0.47879c0.35593 0.88477 0.52862 1.8208 0.56484 2.7598h-5.0091v0.64392h5.0091c-0.03619 0.93906-0.20892 1.8746-0.56484 2.7598l0.47832 0.47494c0.45336-1.0324 0.67283-2.1339 0.71257-3.2348h2.6955c-0.16987 6.088-5.0815 11.007-11.177 11.176" fill="#ff0700"/>
  </g>
</svg>
